<?xml version="1.0" encoding="UTF-8"?>
<!DOCTYPE svg PUBLIC "-//W3C//DTD SVG 1.1//EN" "http://www.w3.org/Graphics/SVG/1.1/DTD/svg11.dtd">
<!-- Creator: CorelDRAW 2020 (64-Bit) -->
<svg xmlns="http://www.w3.org/2000/svg" xml:space="preserve" width="2126px" height="709px" version="1.1" shape-rendering="geometricPrecision" text-rendering="geometricPrecision" image-rendering="optimizeQuality" fill-rule="evenodd" clip-rule="evenodd"
viewBox="0 0 2126 708.67"
 xmlns:xlink="http://www.w3.org/1999/xlink"
 xmlns:xodm="http://www.corel.com/coreldraw/odm/2003">
 <g id="Capa_x0020_1">
  <metadata id="CorelCorpID_0Corel-Layer"/>
  <path  fill-rule="nonzero" d="M523.95 538.39l17.38 0 0 54.71 13.76 0 0 16.47 -31.14 0 0 -71.18zm41.05 7.4c0,-2.27 0.86,-4.2 2.58,-5.8 1.72,-1.6 3.78,-2.4 6.18,-2.4 2.45,0 4.54,0.8 6.27,2.4 1.72,1.6 2.58,3.53 2.58,5.8 0,2.24 -0.86,4.17 -2.58,5.79 -1.73,1.62 -3.82,2.42 -6.27,2.42 -2.36,0 -4.42,-0.8 -6.14,-2.42 -1.74,-1.62 -2.62,-3.55 -2.62,-5.79zm0.46 14.73l16.68 0 0 49.05 -16.68 0 0 -49.05zm46.45 0l0 6.02c4.74,-5.15 9.55,-7.73 14.44,-7.73 5.89,0 9.69,2.82 11.41,8.48 2.68,-2.95 5.17,-5.12 7.48,-6.46 2.33,-1.35 5.03,-2.02 8.12,-2.02 7.75,0 11.64,5.04 11.64,15.14l0 35.62 -16.69 0 0 -28.96c0,-4.73 -1.64,-7.08 -4.93,-7.08 -3.37,0 -5.05,2.31 -5.05,6.97l0 29.07 -16.67 0 0 -29.81c0,-1.81 -0.46,-3.3 -1.36,-4.48 -0.9,-1.17 -2.05,-1.75 -3.46,-1.75 -1.49,0 -2.68,0.57 -3.58,1.69 -0.9,1.15 -1.35,2.7 -1.35,4.65l0 29.7 -16.64 0 0 -49.05 16.64 0zm81.98 0l0 6.22 0.3 0c3.69,-5.08 7.88,-7.62 12.54,-7.62 5.01,0 9.02,2.38 12.08,7.13 3.03,4.73 4.56,11.12 4.56,19.17 0,7.75 -1.57,13.99 -4.68,18.76 -3.11,4.77 -7.11,7.15 -11.96,7.15 -5.13,0 -9.3,-2.74 -12.54,-8.21l-0.3 0 0 26.65 -16.63 0 0 -69.25 16.63 0zm12.84 24.37c0,-8.08 -2.19,-12.12 -6.59,-12.12 -4.17,0 -6.25,4.07 -6.25,12.21 0,8.39 2.08,12.59 6.25,12.59 4.4,0 6.59,-4.24 6.59,-12.68zm26.42 -39.1c0,-2.27 0.86,-4.2 2.58,-5.8 1.73,-1.6 3.78,-2.4 6.19,-2.4 2.44,0 4.54,0.8 6.26,2.4 1.72,1.6 2.59,3.53 2.59,5.8 0,2.24 -0.87,4.17 -2.59,5.79 -1.72,1.62 -3.82,2.42 -6.26,2.42 -2.37,0 -4.42,-0.8 -6.15,-2.42 -1.74,-1.62 -2.62,-3.55 -2.62,-5.79zm0.47 14.73l16.67 0 0 49.05 -16.67 0 0 -49.05zm54.59 34.07l14.05 0c-2.68,11.01 -9.38,16.52 -20.08,16.52 -6.7,0 -11.98,-2.36 -15.88,-7.09 -3.91,-4.72 -5.85,-11.25 -5.85,-19.57 0,-7.75 1.94,-13.96 5.85,-18.64 3.9,-4.67 9.09,-7 15.54,-7 3.9,0 7.64,1.13 11.24,3.38 3.58,2.26 6.2,5.26 7.85,8.99 1.64,3.74 2.56,9.61 2.75,17.64l-27.8 0c0.23,7.3 2.4,10.94 6.53,10.94 1.41,0 2.68,-0.48 3.78,-1.44 1.12,-0.96 1.78,-2.2 2.02,-3.73zm-12.1 -14.2l12.1 0c-0.12,-3.44 -0.63,-5.98 -1.55,-7.64 -0.92,-1.66 -2.37,-2.48 -4.37,-2.48 -2.21,0 -3.79,0.8 -4.75,2.41 -0.96,1.6 -1.43,4.16 -1.43,7.71zm36.01 -19.87l38.54 0 -16.7 36.25 15.6 0 0 12.8 -39.57 0 16.58 -36.26 -14.45 0 0 -12.79zm74.08 49.05l0 -6.45 -0.24 0c-2.01,2.77 -3.97,4.81 -5.87,6.12 -1.9,1.33 -4.11,1.98 -6.67,1.98 -5.01,0 -9,-2.38 -12,-7.15 -2.97,-4.75 -4.46,-11.23 -4.46,-19.4 0,-7.86 1.51,-14.12 4.52,-18.76 3.03,-4.66 7.01,-6.99 11.94,-6.99 2.62,0 4.87,0.6 6.69,1.83 1.84,1.22 3.76,3.19 5.74,5.9l0.23 0 0 -6.13 16.7 0 0 49.05 -16.58 0zm0 -24.79c0,-8.15 -2.13,-12.21 -6.42,-12.21 -4.33,0 -6.48,4.06 -6.48,12.21 0,8.46 2.23,12.69 6.71,12.69 4.13,0 6.19,-4.23 6.19,-12.69zm52.88 -24.26l16.44 0 4.19 12.74c1.47,4.48 2.72,8.86 3.79,13.16l0.28 0c0.88,-4.08 1.6,-7.01 2.19,-8.79l5.56 -17.11 16.67 0 -22.46 69.25 -16.64 0 6.77 -20.84 -16.79 -48.41zm87.15 47.72l0 -16.58c5.5,2.98 10.14,4.48 13.88,4.48 2.17,0 3.89,-0.57 5.16,-1.7 1.26,-1.11 1.88,-2.6 1.88,-4.44 0,-1.42 -0.51,-2.76 -1.51,-4 -1.01,-1.24 -2.75,-2.75 -5.24,-4.53 -6.01,-4.26 -10.35,-8.25 -13.05,-11.92 -2.71,-3.68 -4.04,-7.78 -4.04,-12.29 0,-6.15 2.08,-11.16 6.25,-15.03 4.16,-3.88 9.55,-5.83 16.16,-5.83 4.9,0 9.75,0.99 14.56,2.95l0 15.95c-5.14,-2.64 -9.33,-3.95 -12.54,-3.95 -2.15,0 -3.84,0.49 -5.09,1.45 -1.23,0.98 -1.86,2.33 -1.86,4.04 0,2.99 2.9,6.34 8.65,10.07 3.45,2.2 6.95,5.31 10.47,9.3 3.54,4 5.31,8.64 5.31,13.9 0,6.15 -2.31,11.23 -6.93,15.27 -4.64,4.04 -10.49,6.06 -17.62,6.06 -4.85,0 -9.66,-1.07 -14.44,-3.2zm49.2 -47.72l16.68 0 0 31.56c0,1.64 0.41,3 1.23,4.07 0.82,1.1 1.94,1.64 3.37,1.64 3.21,0 4.81,-2.2 4.81,-6.57l0 -30.7 16.68 0 0 28.41c0,7.22 -1.81,12.74 -5.45,16.56 -3.63,3.82 -8.86,5.73 -15.71,5.73 -7.63,0 -13.15,-1.96 -16.54,-5.86 -3.38,-3.91 -5.07,-8.81 -5.07,-14.67l0 -30.17zm81.36 49.05l0 -6.45 -0.24 0c-2.01,2.77 -3.97,4.81 -5.87,6.12 -1.89,1.33 -4.11,1.98 -6.67,1.98 -5.01,0 -9,-2.38 -12,-7.15 -2.97,-4.75 -4.46,-11.23 -4.46,-19.4 0,-7.86 1.51,-14.12 4.52,-18.76 3.03,-4.66 7.01,-6.99 11.94,-6.99 2.62,0 4.87,0.6 6.69,1.83 1.84,1.22 3.76,3.19 5.74,5.9l0.23 0 0 -6.13 16.7 0 0 49.05 -16.58 0zm0 -24.79c0,-8.15 -2.13,-12.21 -6.42,-12.21 -4.32,0 -6.48,4.06 -6.48,12.21 0,8.46 2.23,12.69 6.72,12.69 4.13,0 6.18,-4.23 6.18,-12.69zm24.25 -24.26l16.28 0 6.6 26.55 0.23 0 6.6 -26.55 16.52 0 -16.4 49.05 -13.55 0 -16.28 -49.05zm53.78 -14.73c0,-2.27 0.86,-4.2 2.58,-5.8 1.73,-1.6 3.78,-2.4 6.19,-2.4 2.45,0 4.54,0.8 6.26,2.4 1.72,1.6 2.58,3.53 2.58,5.8 0,2.24 -0.86,4.17 -2.58,5.79 -1.72,1.62 -3.81,2.42 -6.26,2.42 -2.37,0 -4.42,-0.8 -6.15,-2.42 -1.74,-1.62 -2.62,-3.55 -2.62,-5.79zm0.47 14.73l16.67 0 0 49.05 -16.67 0 0 -49.05zm56.07 -26.08l16.58 0 0 75.13 -16.7 0 0 -6.45 -0.23 0c-3.7,5.39 -7.89,8.1 -12.55,8.1 -4.89,0 -8.84,-2.38 -11.84,-7.15 -2.99,-4.75 -4.5,-11.12 -4.5,-19.09 0,-7.92 1.53,-14.25 4.58,-18.98 3.07,-4.72 7.11,-7.08 12.1,-7.08 4.56,0 8.75,2.43 12.56,7.3l0 -31.78zm0 50.23c0,-8.08 -2.09,-12.1 -6.3,-12.1 -4.33,0 -6.48,4.27 -6.48,12.85 0,3.8 0.59,6.73 1.74,8.82 1.18,2.08 2.78,3.12 4.86,3.12 1.9,0 3.4,-1.1 4.52,-3.32 1.11,-2.2 1.66,-5.33 1.66,-9.37zm55.56 24.9l0 -6.45 -0.23 0c-2.02,2.77 -3.97,4.81 -5.87,6.12 -1.9,1.33 -4.11,1.98 -6.67,1.98 -5.01,0 -9.01,-2.38 -12,-7.15 -2.98,-4.75 -4.46,-11.23 -4.46,-19.4 0,-7.86 1.5,-14.12 4.52,-18.76 3.03,-4.66 7,-6.99 11.94,-6.99 2.62,0 4.87,0.6 6.69,1.83 1.84,1.22 3.76,3.19 5.73,5.9l0.24 0 0 -6.13 16.69 0 0 49.05 -16.58 0zm0 -24.79c0,-8.15 -2.13,-12.21 -6.41,-12.21 -4.33,0 -6.48,4.06 -6.48,12.21 0,8.46 2.23,12.69 6.71,12.69 4.13,0 6.18,-4.23 6.18,-12.69zm55.57 -50.34l16.57 0 0 75.13 -16.69 0 0 -6.45 -0.23 0c-3.7,5.39 -7.89,8.1 -12.55,8.1 -4.89,0 -8.85,-2.38 -11.84,-7.15 -2.99,-4.75 -4.5,-11.12 -4.5,-19.09 0,-7.92 1.52,-14.25 4.58,-18.98 3.07,-4.72 7.1,-7.08 12.09,-7.08 4.56,0 8.75,2.43 12.57,7.3l0 -31.78zm0 50.23c0,-8.08 -2.1,-12.1 -6.3,-12.1 -4.33,0 -6.48,4.27 -6.48,12.85 0,3.8 0.58,6.73 1.74,8.82 1.17,2.08 2.78,3.12 4.85,3.12 1.9,0 3.41,-1.1 4.52,-3.32 1.12,-2.2 1.67,-5.33 1.67,-9.37zm74.72 -24.15l0 6.22 0.3 0c3.69,-5.08 7.88,-7.62 12.54,-7.62 5.01,0 9.02,2.38 12.08,7.13 3.03,4.73 4.56,11.12 4.56,19.17 0,7.75 -1.57,13.99 -4.68,18.76 -3.12,4.77 -7.11,7.15 -11.96,7.15 -5.13,0 -9.3,-2.74 -12.54,-8.21l-0.3 0 0 26.65 -16.63 0 0 -69.25 16.63 0zm12.84 24.37c0,-8.08 -2.19,-12.12 -6.59,-12.12 -4.17,0 -6.25,4.07 -6.25,12.21 0,8.39 2.08,12.59 6.25,12.59 4.4,0 6.59,-4.24 6.59,-12.68zm52.69 24.68l0 -6.45 -0.24 0c-2.02,2.77 -3.97,4.81 -5.87,6.12 -1.9,1.33 -4.11,1.98 -6.68,1.98 -5.01,0 -9,-2.38 -11.99,-7.15 -2.98,-4.75 -4.47,-11.23 -4.47,-19.4 0,-7.86 1.51,-14.12 4.53,-18.76 3.03,-4.66 7,-6.99 11.93,-6.99 2.63,0 4.88,0.6 6.7,1.83 1.84,1.22 3.76,3.19 5.73,5.9l0.24 0 0 -6.13 16.69 0 0 49.05 -16.57 0zm0 -24.79c0,-8.15 -2.14,-12.21 -6.43,-12.21 -4.32,0 -6.47,4.06 -6.47,12.21 0,8.46 2.23,12.69 6.71,12.69 4.13,0 6.19,-4.23 6.19,-12.69zm45.24 -24.26l0 8.21 0.22 0c3.97,-6.41 8.16,-9.61 12.56,-9.61 0.65,0 1.55,0.11 2.7,0.33l0 15.19c-2.03,-0.33 -3.91,-0.47 -5.61,-0.47 -6.13,0 -9.18,3.68 -9.18,11.03l0 24.37 -16.64 0 0 -49.05 15.95 0zm50.73 49.05l0 -6.45 -0.23 0c-2.02,2.77 -3.98,4.81 -5.87,6.12 -1.9,1.33 -4.11,1.98 -6.68,1.98 -5.01,0 -9,-2.38 -12,-7.15 -2.97,-4.75 -4.46,-11.23 -4.46,-19.4 0,-7.86 1.51,-14.12 4.52,-18.76 3.04,-4.66 7.01,-6.99 11.94,-6.99 2.62,0 4.88,0.6 6.7,1.83 1.84,1.22 3.75,3.19 5.73,5.9l0.23 0 0 -6.13 16.7 0 0 49.05 -16.58 0zm0 -24.79c0,-8.15 -2.13,-12.21 -6.42,-12.21 -4.32,0 -6.48,4.06 -6.48,12.21 0,8.46 2.24,12.69 6.72,12.69 4.13,0 6.18,-4.23 6.18,-12.69zm60.16 -37.33l16.68 0 0 13.07 6.48 0 0 12.9 -6.6 0 0 36.15 -16.56 0 0 -36.26 -6.32 0 0 -12.79 6.32 0 0 -13.07zm31.26 13.07l16.67 0 0 31.56c0,1.64 0.42,3 1.24,4.07 0.82,1.1 1.93,1.64 3.36,1.64 3.21,0 4.82,-2.2 4.82,-6.57l0 -30.7 16.67 0 0 28.41c0,7.22 -1.8,12.74 -5.44,16.56 -3.64,3.82 -8.86,5.73 -15.71,5.73 -7.64,0 -13.16,-1.96 -16.54,-5.86 -3.39,-3.91 -5.07,-8.81 -5.07,-14.67l0 -30.17zm85.72 -22.13l20.24 0c8.18,0 14.64,1.94 19.37,5.86 4.76,3.91 7.13,9.22 7.13,15.94 0,3.46 -0.9,6.79 -2.7,9.99 -1.8,3.22 -4.43,5.64 -7.85,7.28l13.87 32.11 -18.35 0 -14.06 -32.42 -0.27 0 0 32.42 -17.38 0 0 -71.18zm17.38 13.76l0 16.89c7.67,-0.13 11.53,-2.64 11.53,-7.52 0,-3.29 -0.9,-5.66 -2.68,-7.08 -1.77,-1.42 -4.72,-2.18 -8.85,-2.29zm60.5 6.66c7.61,0 13.38,2.35 17.37,7.06 3.98,4.71 5.95,11.26 5.95,19.66 0,8.2 -2.05,14.56 -6.18,19.05 -4.13,4.5 -9.84,6.75 -17.14,6.75 -7.01,0 -12.55,-2.29 -16.66,-6.88 -4.11,-4.58 -6.17,-10.9 -6.17,-18.92 0,-8.4 1.96,-14.95 5.88,-19.66 3.91,-4.71 9.57,-7.06 16.95,-7.06zm0.11 38.66c2.18,0 3.82,-0.95 4.9,-2.83 1.09,-1.89 1.64,-5.11 1.64,-9.66 0,-4.51 -0.55,-7.66 -1.61,-9.48 -1.07,-1.82 -2.68,-2.73 -4.81,-2.73 -2.11,0 -3.72,0.89 -4.81,2.64 -1.12,1.76 -1.67,4.98 -1.67,9.68 0,8.24 2.12,12.38 6.36,12.38zm49.65 -36.95l0 6.22 0.3 0c3.7,-5.08 7.89,-7.62 12.54,-7.62 5.01,0 9.03,2.38 12.08,7.13 3.03,4.73 4.56,11.12 4.56,19.17 0,7.75 -1.57,13.99 -4.68,18.76 -3.11,4.77 -7.1,7.15 -11.96,7.15 -5.12,0 -9.29,-2.74 -12.54,-8.21l-0.3 0 0 26.65 -16.63 0 0 -69.25 16.63 0zm12.84 24.37c0,-8.08 -2.19,-12.12 -6.59,-12.12 -4.17,0 -6.25,4.07 -6.25,12.21 0,8.39 2.08,12.59 6.25,12.59 4.4,0 6.59,-4.24 6.59,-12.68zm52.69 24.68l0 -6.45 -0.24 0c-2.01,2.77 -3.97,4.81 -5.87,6.12 -1.9,1.33 -4.11,1.98 -6.67,1.98 -5.01,0 -9.01,-2.38 -12,-7.15 -2.97,-4.75 -4.46,-11.23 -4.46,-19.4 0,-7.86 1.51,-14.12 4.52,-18.76 3.03,-4.66 7.01,-6.99 11.94,-6.99 2.62,0 4.87,0.6 6.69,1.83 1.84,1.22 3.76,3.19 5.74,5.9l0.23 0 0 -6.13 16.69 0 0 49.05 -16.57 0zm0 -24.79c0,-8.15 -2.14,-12.21 -6.42,-12.21 -4.33,0 -6.48,4.06 -6.48,12.21 0,8.46 2.23,12.69 6.71,12.69 4.13,0 6.19,-4.23 6.19,-12.69z"/>
  <path  d="M611.74 414.53l-30.56 0 0 -38.01c45.74,0 54.34,-5.36 54.34,20.73 0,11.17 -12.33,17.28 -23.78,17.28zm0 -86.38l-30.56 0 0 -34.55c11.09,-2.7 29.01,-6.82 41.51,2.68 9.12,6.93 6.03,13.7 6.03,28.41 -7.61,1.81 -7.8,3.46 -16.98,3.46zm-88.29 -58.74l0 158.94c0,46.74 109.13,38.43 139.31,24.26 34.43,-16.16 60.49,-64.78 3.32,-103.73 14.26,-19.81 23.77,-8 23.77,-55.28 0,-65.89 -166.4,-57.49 -166.4,-24.19zm604.5 145.12c-29.55,0 -23.78,-3.26 -23.78,-65.65 0,-27.51 50.94,-16.46 50.94,6.91 0,23.37 6.03,58.74 -27.16,58.74zm-81.51 -179.67c0,49.52 0.12,99.06 0,148.57 -0.08,31.32 -3.69,45.23 15.29,60.45 45.38,36.4 154.51,25.46 154.51,-60.45l0 -24.19c0,-46.15 -35.52,-72.55 -84.9,-72.55 -11.71,0 -13.15,2.56 -23.77,3.45 0,-71.37 -14.07,-60.29 -61.13,-55.28zm193.57 65.65c0,107.66 -14.85,162.39 95.09,162.39 86.49,0 67.93,-57.98 67.93,-134.75 0,-13.49 -2.61,-25.67 -6.8,-34.55 -11.75,-2.79 -54.33,-11.85 -54.33,6.91l0 114.02 -37.36 -3.46c-8.24,-35.99 3.65,-88.13 -10.19,-117.47 -11.75,-2.79 -54.34,-11.85 -54.34,6.91zm556.96 96.74c17.63,-4.18 21.22,-6.91 44.15,-6.91 0,28.82 -1.04,27.64 -30.57,27.64 -12.14,0 -13.24,-8.2 -13.58,-20.73zm-47.55 -82.92c0,12.55 4.03,12.12 6.8,24.18 19.27,0 78.71,-23.79 81.5,10.37 -43.82,3.71 -98.49,6.77 -98.49,55.28 0,85.48 156.22,67.14 156.22,20.73 0,-102.64 14.8,-138.2 -95.09,-138.2 -11.48,0 -22.73,2.03 -31.75,5.7 -8.64,3.52 -19.19,11.79 -19.19,21.94zm-1029 -13.82c0,107.79 -16.1,162.39 95.09,162.39 85.11,0 67.92,-60.72 67.92,-131.3 0,-16.39 -3.8,-24.95 -6.79,-38 -69.03,-16.36 -54.34,-8.85 -54.34,120.93l-27.17 0c-25.96,0 -13.84,-92.39 -20.37,-120.93 -11.98,-2.84 -54.34,-13.47 -54.34,6.91zm1202.2 41.46c0,61.43 68.06,42.26 84.9,65.64 -17.29,24.02 -52.82,1.74 -74.71,-3.45 -2.49,4.78 -10.19,18.47 -10.19,24.19 0,46.47 142.64,56.46 142.64,-24.19 0,-20.22 -17.34,-35.93 -32.84,-42.6 -42.04,-18.1 -50.15,-3.12 -52.07,-26.5 18.69,-10.68 57.17,3.45 71.32,3.45l3.4 -27.64c0,-33.29 -132.45,-45.93 -132.45,31.1zm-305.64 -89.83c0,40.91 -6.23,161.92 9.65,187.11 21.88,34.69 99.02,32.04 99.02,-7.45 0,-24.15 -25.8,-15.58 -47.54,-20.73 0,-32.53 -5.36,-45.73 0,-69.1 22.32,0 28.84,0.56 44.14,-6.91 11.27,-49.19 -4.98,-41.46 -47.54,-41.46 0,-50.2 -2.7,-47.32 -57.73,-41.46zm-203.77 241.85c0,47.49 81.51,38.73 81.51,-27.64l0 -148.56c0,-31.39 -28.74,-27.65 -47.55,-27.65 -18.53,0 -13.69,25.56 -13.59,44.91l0.23 117.7c-0.56,33.39 -20.6,32.4 -20.6,41.24zm-499.22 -165.84l0 114.02c0,21 33.35,17.27 47.55,17.27 15.71,0 10.25,-27.58 10.19,-44.91 -0.06,-18.32 -0.59,-37.46 -0.35,-55.64 0.31,-23.38 7.48,-23.84 28.98,-26.02 18.81,-1.91 29.1,7.65 29.1,-18.54 0,-50.91 -115.47,-26.9 -115.47,13.82zm611.29 -24.19l1.63 119.8c1.68,39.36 10.69,35.68 49.31,35.68 7.83,0 10.19,-2.4 10.19,-10.37l0 -138.2c0,-23.21 -61.13,-31.21 -61.13,-6.91zm322.63 -34.55c28.98,6.87 56.98,24.17 57.73,58.74l6.79 0c1.14,-52.01 43.82,-49.88 57.74,-62.19 -30.43,-7.21 -56.93,-21.85 -57.74,-58.74l-6.79 0c-1.18,14.41 -11.54,30.88 -19.82,38.58 -16.97,15.78 -25.7,12.81 -37.91,23.61zm-417.72 -24.18c0,41.52 64.53,43.39 64.53,0 0,-43.21 -64.53,-38.64 -64.53,0zm95.09 0c0,45.25 67.44,40.44 62.98,-2.54 -4.18,-40.27 -62.98,-35.87 -62.98,2.54zm393.95 -51.83c16.09,3.82 23.41,11.27 27.16,27.64l10.95 -16.5c6.26,-7.57 9.47,-8.73 19.62,-11.14 -8.38,-11.64 -9.58,-5.36 -17.44,-13.35 -7.85,-8 -1.68,-9.21 -13.13,-17.74 -5.72,21.81 -17.12,17.15 -27.16,31.09z"/>
  <path  fill-rule="nonzero" d="M566.03 163.05l57.79 0 0 22.67 -87.98 0 0 -116.49 30.19 0 0 93.82zm155.69 -93.82l58.78 116.49 -32.57 0 -12.71 -24.97 -59.77 0 -12.51 24.97 -32.77 0 58.78 -116.49 32.77 0zm2.18 68.85l-18.47 -36.64 -18.47 36.64 36.94 0zm162.24 -68.85l32.77 0 -59.38 116.49 -33.16 0 -59.18 -116.49 32.77 0 43.09 87.08 43.09 -87.08zm111.01 0l58.78 116.49 -32.56 0 -12.71 -24.97 -59.78 0 -12.51 24.97 -32.77 0 58.79 -116.49 32.76 0zm2.19 68.85l-18.47 -36.64 -18.47 36.64 36.94 0zm166.61 -68.85l30.18 0 0 116.49 -28.79 0 -67.52 -76.07 0 76.07 -30.18 0 0 -116.49 28.19 0 68.12 76.57 0 -76.57zm105.75 0c10.19,0 19.22,1.54 27.04,4.6 7.84,3.07 14.36,7.23 19.59,12.49 5.23,5.26 9.23,11.45 11.95,18.57 2.71,7.12 4.07,14.67 4.07,22.67 0,8.11 -1.42,15.69 -4.27,22.76 -2.85,7.06 -6.82,13.22 -11.85,18.48 -5.03,5.26 -10.99,9.39 -17.91,12.41 -6.88,3.01 -14.36,4.51 -22.47,4.51l-63.05 0 0 -116.49 56.9 0zm0.1 93.82c5.69,0 10.55,-0.96 14.59,-2.87 4.04,-1.92 7.38,-4.5 10.03,-7.78 2.65,-3.29 4.6,-7.07 5.86,-11.31 1.25,-4.27 1.88,-8.74 1.88,-13.45 0,-4.71 -0.59,-9.2 -1.78,-13.53 -1.2,-4.32 -3.12,-8.1 -5.76,-11.39 -2.65,-3.28 -6.03,-5.89 -10.13,-7.86 -4.1,-1.97 -9,-2.95 -14.69,-2.95l-26.82 0 0 71.14 26.82 0zm78.63 -93.82l87.97 0 0 22.68 -57.78 0 0 21.03 50.83 0 0 22.67 -50.83 0 0 27.44 57.78 0 0 22.67 -87.97 0 0 -116.49zm208.12 34.67c0,3.72 -0.63,7.26 -1.89,10.6 -1.26,3.34 -3.01,6.41 -5.26,9.2 -2.25,2.79 -4.97,5.26 -8.14,7.39 -3.18,2.14 -6.62,3.86 -10.33,5.18l46.67 49.45 -35.15 0 -43.49 -46.99 -13.51 0 0 46.99 -30.18 0 0 -116.49 60.77 0c5.56,0 10.82,0.91 15.78,2.71 4.97,1.81 9.27,4.27 12.91,7.4 3.64,3.12 6.52,6.79 8.64,11 2.12,4.22 3.18,8.74 3.18,13.56zm-44.29 12.16c3.84,0 7.15,-1.18 9.93,-3.53 2.78,-2.36 4.17,-5.23 4.17,-8.63 0,-3.29 -1.39,-6.11 -4.17,-8.46 -2.78,-2.36 -6.09,-3.53 -9.93,-3.53l-26.81 0 0 24.15 26.81 0zm130.67 -46.83l0 21.03 -10.52 0 0 74.6 10.52 0 0 20.86 -51.23 0 0 -20.86 10.52 0 0 -74.6 -10.52 0 0 -21.03 51.23 0zm-1.98 -37.13l-12.51 29.41 -20.26 0 2.78 -29.41 29.99 0zm107.03 37.13l58.78 116.49 -32.56 0 -12.71 -24.97 -59.78 0 -12.51 24.97 -32.77 0 58.79 -116.49 32.76 0zm2.19 68.85l-18.47 -36.64 -18.47 36.64 36.94 0z"/>
  <path  d="M298.09 361.51c-6.93,1.67 -16.81,0.51 -27.58,3.6 -26.76,7.67 -42.8,21.5 -61.45,39.93 -48.01,47.46 -44.93,141.91 11.72,189.73 55.93,47.22 136.33,44.4 189.78,-14.23 68.57,-75.21 24.04,-212.49 -96.92,-221.75 -0.42,-0.03 -7.61,-0.1 -7.83,-0.07 -9.91,1.12 -6.57,2.51 -7.72,2.79zm-179.79 -158.33c-6.58,1.68 -7.01,-2.87 -27.68,10.64 -64.99,42.49 -36.55,160.72 64.31,144.88 85.61,-13.44 82.6,-157.5 -17.96,-158.44 -22.48,-0.21 -16.06,2.25 -18.67,2.92zm-23.39 376.89c-67.05,20.35 -38.88,112.68 28.14,97.64 62.44,-14.01 40.63,-118.52 -28.14,-97.64zm291.56 -426.5c-29.55,9.04 -42.52,32.13 -36.32,59.66 6.62,29.31 34.14,45.17 64.04,38.24 24.71,-5.72 43.18,-36.6 35.78,-62.63 -6.9,-24.26 -28.47,-39.45 -53.25,-38.12 -10.8,0.57 -8.69,2.37 -10.25,2.85zm-188.73 359.57c13.42,-7.6 -0.5,-33.27 28.47,-78.29 26.9,-41.82 50.29,-29.66 55.9,-50.95 -47.74,-9.32 -110.06,111.2 -84.37,129.24zm-127.89 -241.33c-2.2,9.45 -2.56,9.11 2.66,15.2 5.56,-3.06 2.82,2.59 5.5,-7.4 5.96,-49.85 35.15,-46.26 41.44,-62.35 -5.23,-2.99 -0.9,-4.48 -10.77,-0.51l-21.75 17.49c-10.24,10.8 -14.61,23.32 -17.08,37.57zm-3.28 359.78l4.85 4.54 7.53 -20.21c5.61,-15.94 15.44,-14.19 22.5,-24.55 -4.76,-3.51 6.35,-3.53 -8.33,-2.95 -9.32,0.37 -28.72,20.24 -26.55,43.17zm298.23 -420.61l-0.12 0.36c4.86,-37.66 23.76,-33.1 26.47,-46.49 -19.87,-8.86 -34.07,28.21 -34.51,45.38l8.16 0.75zm-157.68 -179.57c-55.89,17.24 -28.48,94.57 25.06,79.64 49.85,-13.9 30.44,-96.76 -25.06,-79.64zm-17.16 46.78l7.08 -1.14 3.5 -10.76c5.84,-21.28 13.15,-12.23 18.58,-25.16 -18.49,-10.13 -29.86,22.11 -29.16,37.06z"/>
 </g>
</svg>
